<?xml version="1.0" encoding="iso-8859-1"?>
<!-- Uploaded to: SVG Repo, www.svgrepo.com, Generator: SVG Repo Mixer Tools -->
<svg version="1.1" id="Layer_1" xmlns="http://www.w3.org/2000/svg" xmlns:xlink="http://www.w3.org/1999/xlink" 
	 viewBox="0 0 463.3 463.3" xml:space="preserve">
<g>
	<path style="fill:#CCCCCC;" d="M446.1,80.31H26.5c-9.5,0-17.2,7.7-17.2,17.2v26.15v254.13c0,9.5,7.7,17.2,17.2,17.2h419.6
		c9.5,0,17.2-7.7,17.2-17.2V123.66v-26.15C463.299,88.01,455.6,80.31,446.1,80.31z"/>
	<path style="fill:#F2F2F2;" d="M454,111.661v254.13c0,9.5-7.7,17.2-17.2,17.2H17.2c-9.5,0-17.2-7.7-17.2-17.2v-254.13H454z"/>
	<path style="fill:#88C5FC;" d="M454,85.511v26.15H0v-26.15c0-9.5,7.7-17.2,17.2-17.2h419.6C446.3,68.311,454,76.011,454,85.511z"/>
	<path style="fill:#F2F2F2;" d="M259.997,97.486h-188c-4.142,0-7.5-3.358-7.5-7.5s3.358-7.5,7.5-7.5h188c4.142,0,7.5,3.358,7.5,7.5
		S264.139,97.486,259.997,97.486z"/>
	<path style="fill:#4D4D4D;" d="M47,97.481c-1.98,0-3.91-0.8-5.31-2.19c-1.39-1.4-2.19-3.33-2.19-5.31c0-1.97,0.8-3.9,2.19-5.3
		c1.4-1.39,3.33-2.19,5.31-2.19c1.97,0,3.9,0.8,5.3,2.19c1.4,1.4,2.2,3.33,2.2,5.3c0,1.98-0.8,3.91-2.2,5.31
		C50.9,96.681,48.97,97.481,47,97.481z"/>
	<path style="fill:#F9A18A;" d="M23,97.481c-1.98,0-3.91-0.8-5.31-2.19c-1.39-1.4-2.19-3.33-2.19-5.31c0-1.97,0.8-3.9,2.19-5.3
		c1.4-1.39,3.33-2.19,5.31-2.19c1.97,0,3.9,0.8,5.3,2.19c1.4,1.4,2.2,3.33,2.2,5.3c0,1.98-0.8,3.91-2.2,5.31
		C26.9,96.681,24.97,97.481,23,97.481z"/>
	<polygon style="fill:#666666;" points="175.23,305.882 113.377,241.637 175.23,177.393 186.037,187.797 134.199,241.637 
		186.037,295.479 	"/>
	<polygon style="fill:#666666;" points="278.762,305.882 267.957,295.479 319.795,241.637 267.956,187.797 278.762,177.393 
		340.617,241.637 	"/>
	
		<rect x="219.489" y="158.66" transform="matrix(-0.9632 -0.2686 0.2686 -0.9632 381.2688 531.4194)" style="fill:#666666;" width="15" height="161.935"/>
	<g>
		<path style="opacity:0.23;fill:#F2F2F2;enable-background:new    ;" d="M454,85.511v280.28c0,9.5-7.7,17.2-17.2,17.2H194.887
			l163.75-314.68H436.8C446.3,68.311,454,76.011,454,85.511z"/>
		<path style="opacity:0.23;fill:#F2F2F2;enable-background:new    ;" d="M119.68,68.311l-22.56,43.35L85.29,134.4l-25.96,49.88
			l-12.39,23.82l-23.94,46L0,298.3V85.511c0-9.5,7.7-17.2,17.2-17.2H119.68z"/>
	</g>
</g>
</svg>